# xmcd
#
# Track frame offsets: 
#        150
#        12042
#        22649
#        33990
#        44831
#        56652
#        68303
#        76137
#        87002
#        98910
#        114247
#        125377
#        144143
#        154225
#        165222
#        177688
#        192153
#        204169
#        216626
#        227775
#
# Disc length: 3152 seconds
#
# Revision: 0
# Processed by: cddbd v1.5.2PL0 Copyright (c) Steve Scherf et al.
# Submitted via: ExactAudioCopyFreeDBPlugin 1.0
#
DISCID=f60c4e14
DTITLE=Various Artist - The Best Northern Soul Album
DYEAR=1900
DGENRE=Northern Soul
TTITLE0=Shirley Ellis - Soul Time
TTITLE1=Just Brothers - Sliced Tomatoes
TTITLE2=Laura Greene - Moonlight Music And You
TTITLE3=James and Bobby Purify - Let Love Come Between Us
TTITLE4=Beverly Ann - He's Coming Home
TTITLE5=Carstairs - He Who Picks A Rose
TTITLE6=Don Ray - Born A Loser
TTITLE7=Lorraine Chandler - I Can't Hold On
TTITLE8=Roy Hamilton - You Shook Me Up
TTITLE9=The Brothers - Are You Ready For This
TTITLE10=The Incredibles - There's Nothing Else To Say
TTITLE11=The Nite-Liters - K-Jee
TTITLE12=The Uptights - Shy Guy
TTITLE13=Willie Kendrick - You Can't Bypass Love
TTITLE14=Z.Z. Hill - No More Doggin'
TTITLE15=Rick Sheppard - Can We Share It
TTITLE16=Peggy March - If You Loved Me
TTITLE17=Otis Blackwell - It's All Over Me
TTITLE18=Major Lance - It's The Beat
TTITLE19=James Carr - That's What I Want To Know
EXTD=
EXTT0=
EXTT1=
EXTT2=
EXTT3=
EXTT4=
EXTT5=
EXTT6=
EXTT7=
EXTT8=
EXTT9=
EXTT10=
EXTT11=
EXTT12=
EXTT13=
EXTT14=
EXTT15=
EXTT16=
EXTT17=
EXTT18=
EXTT19=
PLAYORDER=
